<?xml version="1.0" ?><svg height="512px" id="Layer_1" style="enable-background:new 0 0 512 512;" version="1.1" viewBox="0 0 512 512" width="512px" xml:space="preserve" xmlns="http://www.w3.org/2000/svg" xmlns:cc="http://creativecommons.org/ns#" xmlns:dc="http://purl.org/dc/elements/1.1/" xmlns:inkscape="http://www.inkscape.org/namespaces/inkscape" xmlns:rdf="http://www.w3.org/1999/02/22-rdf-syntax-ns#" xmlns:sodipodi="http://sodipodi.sourceforge.net/DTD/sodipodi-0.dtd" xmlns:svg="http://www.w3.org/2000/svg"><defs id="defs19"/><g id="g2996" transform="translate(0.32800146,0.07000866)"><g id="g2987" style="fill:none;stroke:#5eaade;stroke-width:10.19920349000000000;stroke-miterlimit:4;stroke-opacity:1;stroke-dasharray:none" transform="matrix(0.98046874,0,0,0.98046874,4.9935963,4.9986352)"><path d="m 511.672,255.92999 c 0,141.3849 -114.61511,256 -256,256 -141.3849,0 -256.00000293,-114.6151 -256.00000293,-256 C -0.32800293,114.5451 114.2871,-0.07000732 255.672,-0.07000732 c 141.38489,0 256,114.61510732 256,255.99999732 z" id="path2989" style="fill:none;stroke:#5eaade;stroke-width:10.19920349000000000;stroke-miterlimit:4;stroke-opacity:1;stroke-dasharray:none"/></g><g id="g4124" transform="translate(-1012.328,37.929991)"><g id="g2995"><path d="m 1329.0275,79.34 c 3.567,0 7.133,0 10.707,0 0.462,0.438 0.921,0.559 1.38,0 0.578,0 1.159,0 1.727,0 -0.042,0.927 0.741,0.573 1.134,0.656 1.797,0.336 3.652,0.556 5.428,0.941 13.853,2.941 25.744,9.431 35.705,19.399 0.671,0.688 1.252,1.109 2.355,0.874 11.9,-2.504 23.333,-6.319 34.212,-11.698 3.117,-1.517 6.147,-3.16 9.535,-4.91 -2.742,8.172 -6.654,15.349 -11.85,21.854 -5.228,6.543 -11.509,11.953 -18.584,16.509 13.734,-1.563 26.841,-5.16 39.952,-10.755 -0.741,1.074 -1.14,1.677 -1.566,2.302 -9.005,12.727 -19.815,23.735 -32.504,32.948 -0.95,0.69 -1.259,1.413 -1.242,2.522 0.052,4.321 0.226,8.642 0.097,12.946 -0.289,11.363 -1.669,22.558 -4.003,33.655 -4.62,22.072 -12.655,42.918 -24.064,62.471 -11.005,18.794 -24.661,35.456 -41.133,49.876 -15.016,13.099 -31.714,23.623 -50.119,31.506 -15.239,6.489 -31.072,10.994 -47.487,13.518 -6.153,0.957 -12.313,1.73 -18.504,2.103 -0.494,0.03 -1.335,-0.371 -1.515,0.604 -0.918,0 -1.84,0 -2.758,0 -0.69,-0.522 -1.396,-0.438 -2.087,0 -6.452,0 -12.905,0 -19.364,0 -0.462,-0.438 -0.921,-0.559 -1.38,0 -1.149,0 -2.314,0 -3.465,0 0.025,-0.051 0.077,-0.102 0.109,-0.137 0.026,-0.031 0.068,-0.133 0.068,-0.133 -0.546,-0.423 -1.208,-0.337 -1.82,-0.388 -11.724,-0.84 -23.275,-2.809 -34.646,-5.684 -18.167,-4.656 -35.33,-11.732 -51.51,-21.096 -2.07,-1.195 -4.096,-2.505 -6.564,-4.001 39.015,3.884 73.657,-5.668 104.826,-28.882 -36.64,-1.465 -59.439,-26.646 -66.011,-48.703 10.479,1.797 20.825,1.563 31.124,-1.242 -16.379,-3.75 -29.99,-11.923 -40.521,-24.85 -10.556,-12.979 -15.576,-27.84 -15.631,-44.754 5.075,2.776 10.09,4.827 15.342,6.254 5.304,1.465 10.684,2.354 16.507,2.508 -37.143,-25.873 -36.639,-70.037 -21.47,-93.238 4.23,5.146 8.709,10.039 13.425,14.696 12.974,12.81 27.41,23.753 43.377,32.679 27.32,15.248 56.662,23.705 87.973,25.537 0.918,0.066 1.19,-0.085 0.943,-1.109 -0.844,-3.414 -1.284,-6.926 -1.47,-10.453 -0.793,-15.186 2.651,-29.339 11.124,-42.065 11.926,-17.938 28.713,-28.545 50.296,-31.637 0.382,-0.052 1.162,0.284 1.146,-0.624 0.562,0 1.148,0 1.727,0 0.35,0.439 0.689,0.439 1.049,0.001 z" id="path12" style="fill:#5eaade;fill-opacity:1"/></g><g id="Layer_1_1_-8"/></g></g><g id="Layer_1_1_"/></svg>